<mxfile host="Electron" agent="Mozilla/5.0 (X11; Linux x86_64) AppleWebKit/537.36 (KHTML, like Gecko) draw.io/24.7.17 Chrome/128.0.6613.36 Electron/32.0.1 Safari/537.36" version="24.7.17">
  <diagram name="Page-1" id="JHsDmm2WoqJ1wgWaUv6p">
    <mxGraphModel dx="1430" dy="868" grid="1" gridSize="10" guides="1" tooltips="1" connect="1" arrows="1" fold="1" page="1" pageScale="1" pageWidth="850" pageHeight="1100" math="0" shadow="0">
      <root>
        <mxCell id="0" />
        <mxCell id="1" parent="0" />
        <mxCell id="3GVLNlSYu6luPYKcVSV_-11" style="edgeStyle=orthogonalEdgeStyle;rounded=0;orthogonalLoop=1;jettySize=auto;html=1;entryX=0;entryY=0.5;entryDx=0;entryDy=0;strokeWidth=2;" parent="1" source="3GVLNlSYu6luPYKcVSV_-2" target="3GVLNlSYu6luPYKcVSV_-8" edge="1">
          <mxGeometry relative="1" as="geometry" />
        </mxCell>
        <mxCell id="3GVLNlSYu6luPYKcVSV_-12" style="edgeStyle=orthogonalEdgeStyle;rounded=0;orthogonalLoop=1;jettySize=auto;html=1;entryX=0;entryY=0.5;entryDx=0;entryDy=0;strokeWidth=2;" parent="1" source="3GVLNlSYu6luPYKcVSV_-2" target="3GVLNlSYu6luPYKcVSV_-9" edge="1">
          <mxGeometry relative="1" as="geometry" />
        </mxCell>
        <mxCell id="3GVLNlSYu6luPYKcVSV_-2" value="&lt;font style=&quot;font-size: 17px;&quot;&gt;сервер&lt;/font&gt;" style="shape=cylinder3;whiteSpace=wrap;html=1;boundedLbl=1;backgroundOutline=1;size=15;" parent="1" vertex="1">
          <mxGeometry x="30" y="352.65" width="80" height="100" as="geometry" />
        </mxCell>
        <mxCell id="3GVLNlSYu6luPYKcVSV_-26" style="edgeStyle=orthogonalEdgeStyle;rounded=0;orthogonalLoop=1;jettySize=auto;html=1;entryX=0;entryY=0.5;entryDx=0;entryDy=0;strokeWidth=2;" parent="1" source="3GVLNlSYu6luPYKcVSV_-3" target="3GVLNlSYu6luPYKcVSV_-10" edge="1">
          <mxGeometry relative="1" as="geometry" />
        </mxCell>
        <mxCell id="3GVLNlSYu6luPYKcVSV_-3" value="&lt;font style=&quot;font-size: 17px;&quot;&gt;сервер&lt;/font&gt;" style="shape=cylinder3;whiteSpace=wrap;html=1;boundedLbl=1;backgroundOutline=1;size=15;" parent="1" vertex="1">
          <mxGeometry x="30" y="522.6500000000001" width="80" height="100" as="geometry" />
        </mxCell>
        <mxCell id="3GVLNlSYu6luPYKcVSV_-31" style="edgeStyle=orthogonalEdgeStyle;rounded=0;orthogonalLoop=1;jettySize=auto;html=1;entryX=0;entryY=0.5;entryDx=0;entryDy=0;strokeWidth=2;" parent="1" source="3GVLNlSYu6luPYKcVSV_-8" target="3GVLNlSYu6luPYKcVSV_-27" edge="1">
          <mxGeometry relative="1" as="geometry" />
        </mxCell>
        <mxCell id="3GVLNlSYu6luPYKcVSV_-8" value="&lt;span style=&quot;font-size: 17px;&quot;&gt;канал 1&lt;/span&gt;" style="shape=hexagon;perimeter=hexagonPerimeter2;whiteSpace=wrap;html=1;fixedSize=1;" parent="1" vertex="1">
          <mxGeometry x="182" y="280" width="80" height="70" as="geometry" />
        </mxCell>
        <mxCell id="3GVLNlSYu6luPYKcVSV_-30" style="edgeStyle=orthogonalEdgeStyle;rounded=0;orthogonalLoop=1;jettySize=auto;html=1;entryX=0;entryY=0.5;entryDx=0;entryDy=0;strokeWidth=2;" parent="1" source="3GVLNlSYu6luPYKcVSV_-9" target="3GVLNlSYu6luPYKcVSV_-29" edge="1">
          <mxGeometry relative="1" as="geometry" />
        </mxCell>
        <mxCell id="3GVLNlSYu6luPYKcVSV_-9" value="&lt;span style=&quot;font-size: 17px;&quot;&gt;канал 2&lt;/span&gt;" style="shape=hexagon;perimeter=hexagonPerimeter2;whiteSpace=wrap;html=1;fixedSize=1;" parent="1" vertex="1">
          <mxGeometry x="182" y="453" width="80" height="70" as="geometry" />
        </mxCell>
        <mxCell id="3GVLNlSYu6luPYKcVSV_-32" style="edgeStyle=orthogonalEdgeStyle;rounded=0;orthogonalLoop=1;jettySize=auto;html=1;entryX=0;entryY=0.5;entryDx=0;entryDy=0;strokeWidth=2;" parent="1" source="3GVLNlSYu6luPYKcVSV_-10" target="3GVLNlSYu6luPYKcVSV_-28" edge="1">
          <mxGeometry relative="1" as="geometry" />
        </mxCell>
        <mxCell id="3GVLNlSYu6luPYKcVSV_-10" value="&lt;span style=&quot;font-size: 17px;&quot;&gt;канал 3&lt;/span&gt;" style="shape=hexagon;perimeter=hexagonPerimeter2;whiteSpace=wrap;html=1;fixedSize=1;" parent="1" vertex="1">
          <mxGeometry x="182" y="625" width="80" height="70" as="geometry" />
        </mxCell>
        <mxCell id="3GVLNlSYu6luPYKcVSV_-27" value="namespace 1" style="rounded=1;whiteSpace=wrap;html=1;" parent="1" vertex="1">
          <mxGeometry x="327" y="290" width="98" height="50" as="geometry" />
        </mxCell>
        <mxCell id="3GVLNlSYu6luPYKcVSV_-28" value="namespace 1" style="rounded=1;whiteSpace=wrap;html=1;" parent="1" vertex="1">
          <mxGeometry x="327" y="635" width="98" height="50" as="geometry" />
        </mxCell>
        <mxCell id="3GVLNlSYu6luPYKcVSV_-29" value="namespace 1" style="rounded=1;whiteSpace=wrap;html=1;" parent="1" vertex="1">
          <mxGeometry x="327" y="463.15999999999997" width="98" height="50" as="geometry" />
        </mxCell>
        <mxCell id="3GVLNlSYu6luPYKcVSV_-55" style="edgeStyle=orthogonalEdgeStyle;rounded=0;orthogonalLoop=1;jettySize=auto;html=1;entryX=1;entryY=0.5;entryDx=0;entryDy=0;strokeWidth=2;" parent="1" source="3GVLNlSYu6luPYKcVSV_-35" target="3GVLNlSYu6luPYKcVSV_-40" edge="1">
          <mxGeometry relative="1" as="geometry" />
        </mxCell>
        <mxCell id="3GVLNlSYu6luPYKcVSV_-35" value="&lt;font style=&quot;font-size: 14px;&quot;&gt;додаток&lt;/font&gt;" style="whiteSpace=wrap;html=1;aspect=fixed;" parent="1" vertex="1">
          <mxGeometry x="754" y="367" width="66" height="66" as="geometry" />
        </mxCell>
        <mxCell id="3GVLNlSYu6luPYKcVSV_-56" style="edgeStyle=orthogonalEdgeStyle;rounded=0;orthogonalLoop=1;jettySize=auto;html=1;entryX=1;entryY=0.5;entryDx=0;entryDy=0;strokeWidth=2;" parent="1" source="3GVLNlSYu6luPYKcVSV_-36" target="3GVLNlSYu6luPYKcVSV_-40" edge="1">
          <mxGeometry relative="1" as="geometry" />
        </mxCell>
        <mxCell id="3GVLNlSYu6luPYKcVSV_-36" value="&lt;font style=&quot;font-size: 14px;&quot;&gt;додаток&lt;/font&gt;" style="whiteSpace=wrap;html=1;aspect=fixed;" parent="1" vertex="1">
          <mxGeometry x="754" y="455.16" width="66" height="66" as="geometry" />
        </mxCell>
        <mxCell id="3GVLNlSYu6luPYKcVSV_-57" style="edgeStyle=orthogonalEdgeStyle;rounded=0;orthogonalLoop=1;jettySize=auto;html=1;entryX=1;entryY=0.5;entryDx=0;entryDy=0;strokeWidth=2;" parent="1" source="3GVLNlSYu6luPYKcVSV_-37" target="3GVLNlSYu6luPYKcVSV_-40" edge="1">
          <mxGeometry relative="1" as="geometry" />
        </mxCell>
        <mxCell id="3GVLNlSYu6luPYKcVSV_-37" value="&lt;font style=&quot;font-size: 14px;&quot;&gt;додаток&lt;/font&gt;" style="whiteSpace=wrap;html=1;aspect=fixed;" parent="1" vertex="1">
          <mxGeometry x="754" y="540" width="66" height="66" as="geometry" />
        </mxCell>
        <mxCell id="3GVLNlSYu6luPYKcVSV_-58" style="edgeStyle=orthogonalEdgeStyle;rounded=0;orthogonalLoop=1;jettySize=auto;html=1;entryX=1;entryY=0.5;entryDx=0;entryDy=0;strokeWidth=2;" parent="1" source="3GVLNlSYu6luPYKcVSV_-38" target="3GVLNlSYu6luPYKcVSV_-40" edge="1">
          <mxGeometry relative="1" as="geometry" />
        </mxCell>
        <mxCell id="3GVLNlSYu6luPYKcVSV_-38" value="&lt;font style=&quot;font-size: 14px;&quot;&gt;додаток&lt;/font&gt;" style="whiteSpace=wrap;html=1;aspect=fixed;" parent="1" vertex="1">
          <mxGeometry x="754" y="627" width="66" height="66" as="geometry" />
        </mxCell>
        <mxCell id="3GVLNlSYu6luPYKcVSV_-48" style="edgeStyle=orthogonalEdgeStyle;rounded=0;orthogonalLoop=1;jettySize=auto;html=1;entryX=1;entryY=0.5;entryDx=0;entryDy=0;exitX=0.5;exitY=0;exitDx=0;exitDy=0;strokeWidth=2;" parent="1" source="3GVLNlSYu6luPYKcVSV_-40" target="3GVLNlSYu6luPYKcVSV_-27" edge="1">
          <mxGeometry relative="1" as="geometry">
            <Array as="points">
              <mxPoint x="615" y="315" />
            </Array>
          </mxGeometry>
        </mxCell>
        <mxCell id="3GVLNlSYu6luPYKcVSV_-49" value="&amp;nbsp;канал 1&amp;nbsp;" style="edgeLabel;html=1;align=center;verticalAlign=middle;resizable=0;points=[];spacingTop=4;spacing=6;spacingLeft=4;" parent="3GVLNlSYu6luPYKcVSV_-48" vertex="1" connectable="0">
          <mxGeometry x="0.0177" y="-1" relative="1" as="geometry">
            <mxPoint x="-26" y="-1" as="offset" />
          </mxGeometry>
        </mxCell>
        <mxCell id="3GVLNlSYu6luPYKcVSV_-50" style="edgeStyle=orthogonalEdgeStyle;rounded=0;orthogonalLoop=1;jettySize=auto;html=1;entryX=1;entryY=0.5;entryDx=0;entryDy=0;strokeWidth=2;" parent="1" source="3GVLNlSYu6luPYKcVSV_-40" target="3GVLNlSYu6luPYKcVSV_-29" edge="1">
          <mxGeometry relative="1" as="geometry" />
        </mxCell>
        <mxCell id="3GVLNlSYu6luPYKcVSV_-51" value="&amp;nbsp;канал 2&amp;nbsp;" style="edgeLabel;html=1;align=center;verticalAlign=middle;resizable=0;points=[];" parent="3GVLNlSYu6luPYKcVSV_-50" vertex="1" connectable="0">
          <mxGeometry x="-0.0716" y="1" relative="1" as="geometry">
            <mxPoint x="3" y="-2" as="offset" />
          </mxGeometry>
        </mxCell>
        <mxCell id="3GVLNlSYu6luPYKcVSV_-52" style="edgeStyle=orthogonalEdgeStyle;rounded=0;orthogonalLoop=1;jettySize=auto;html=1;entryX=1;entryY=0.5;entryDx=0;entryDy=0;exitX=0.5;exitY=1;exitDx=0;exitDy=0;strokeWidth=2;" parent="1" source="3GVLNlSYu6luPYKcVSV_-40" target="3GVLNlSYu6luPYKcVSV_-28" edge="1">
          <mxGeometry relative="1" as="geometry" />
        </mxCell>
        <mxCell id="3GVLNlSYu6luPYKcVSV_-53" value="&amp;nbsp;канал 3&amp;nbsp;" style="edgeLabel;html=1;align=center;verticalAlign=middle;resizable=0;points=[];" parent="3GVLNlSYu6luPYKcVSV_-52" vertex="1" connectable="0">
          <mxGeometry x="0.3047" y="4" relative="1" as="geometry">
            <mxPoint x="15" y="-4" as="offset" />
          </mxGeometry>
        </mxCell>
        <mxCell id="3GVLNlSYu6luPYKcVSV_-40" value="&lt;font style=&quot;font-size: 17px;&quot;&gt;який канал користувати?&lt;/font&gt;" style="rhombus;whiteSpace=wrap;html=1;" parent="1" vertex="1">
          <mxGeometry x="540" y="411.77" width="150" height="152.76" as="geometry" />
        </mxCell>
        <mxCell id="3GVLNlSYu6luPYKcVSV_-54" style="edgeStyle=orthogonalEdgeStyle;rounded=0;orthogonalLoop=1;jettySize=auto;html=1;entryX=1;entryY=0.5;entryDx=0;entryDy=0;strokeWidth=2;" parent="1" source="3GVLNlSYu6luPYKcVSV_-42" target="3GVLNlSYu6luPYKcVSV_-40" edge="1">
          <mxGeometry relative="1" as="geometry" />
        </mxCell>
        <mxCell id="3GVLNlSYu6luPYKcVSV_-42" value="&lt;font style=&quot;font-size: 14px;&quot;&gt;додаток&lt;/font&gt;" style="whiteSpace=wrap;html=1;aspect=fixed;" parent="1" vertex="1">
          <mxGeometry x="754" y="280" width="66" height="66" as="geometry" />
        </mxCell>
        <mxCell id="3GVLNlSYu6luPYKcVSV_-62" value="" style="endArrow=classic;startArrow=classic;html=1;rounded=0;exitX=0.5;exitY=0;exitDx=0;exitDy=0;entryX=0.5;entryY=1;entryDx=0;entryDy=0;strokeWidth=2;" parent="1" source="3GVLNlSYu6luPYKcVSV_-10" target="3GVLNlSYu6luPYKcVSV_-9" edge="1">
          <mxGeometry width="50" height="50" relative="1" as="geometry">
            <mxPoint x="330" y="490" as="sourcePoint" />
            <mxPoint x="380" y="440" as="targetPoint" />
            <Array as="points" />
          </mxGeometry>
        </mxCell>
        <mxCell id="3GVLNlSYu6luPYKcVSV_-66" value="&lt;font style=&quot;font-size: 14px;&quot;&gt;ip tables&lt;/font&gt;" style="edgeLabel;html=1;align=center;verticalAlign=middle;resizable=0;points=[];" parent="3GVLNlSYu6luPYKcVSV_-62" vertex="1" connectable="0">
          <mxGeometry x="0.6152" y="2" relative="1" as="geometry">
            <mxPoint x="1" y="3" as="offset" />
          </mxGeometry>
        </mxCell>
        <mxCell id="3GVLNlSYu6luPYKcVSV_-63" value="" style="endArrow=classic;startArrow=classic;html=1;rounded=0;exitX=0.5;exitY=0;exitDx=0;exitDy=0;entryX=0.5;entryY=1;entryDx=0;entryDy=0;strokeWidth=2;" parent="1" source="3GVLNlSYu6luPYKcVSV_-9" target="3GVLNlSYu6luPYKcVSV_-8" edge="1">
          <mxGeometry width="50" height="50" relative="1" as="geometry">
            <mxPoint x="223" y="452" as="sourcePoint" />
            <mxPoint x="223" y="353" as="targetPoint" />
            <Array as="points" />
          </mxGeometry>
        </mxCell>
        <mxCell id="3GVLNlSYu6luPYKcVSV_-65" value="переключення" style="rounded=0;whiteSpace=wrap;html=1;" parent="1" vertex="1">
          <mxGeometry x="162" y="562.65" width="120" height="20" as="geometry" />
        </mxCell>
        <mxCell id="3GVLNlSYu6luPYKcVSV_-67" value="&lt;font style=&quot;font-size: 14px;&quot;&gt;ip tables&lt;/font&gt;" style="edgeLabel;html=1;align=center;verticalAlign=middle;resizable=0;points=[];" parent="1" vertex="1" connectable="0">
          <mxGeometry x="222" y="599.5" as="geometry" />
        </mxCell>
        <mxCell id="3GVLNlSYu6luPYKcVSV_-68" value="&lt;font style=&quot;font-size: 14px;&quot;&gt;ip tables&lt;/font&gt;" style="edgeLabel;html=1;align=center;verticalAlign=middle;resizable=0;points=[];" parent="1" vertex="1" connectable="0">
          <mxGeometry x="222" y="429" as="geometry" />
        </mxCell>
        <mxCell id="3GVLNlSYu6luPYKcVSV_-69" value="&lt;font style=&quot;font-size: 14px;&quot;&gt;ip tables&lt;/font&gt;" style="edgeLabel;html=1;align=center;verticalAlign=middle;resizable=0;points=[];" parent="1" vertex="1" connectable="0">
          <mxGeometry x="222" y="372" as="geometry" />
        </mxCell>
        <mxCell id="3GVLNlSYu6luPYKcVSV_-70" value="переключення" style="rounded=0;whiteSpace=wrap;html=1;" parent="1" vertex="1">
          <mxGeometry x="162" y="390" width="120" height="20" as="geometry" />
        </mxCell>
      </root>
    </mxGraphModel>
  </diagram>
</mxfile>
